<svg width="62" height="64" viewBox="0 0 62 64" fill="none" xmlns="http://www.w3.org/2000/svg">
<path d="M5.16675 16C5.16675 14.5855 5.71109 13.2289 6.68003 12.2287C7.64897 11.2285 8.96313 10.6666 10.3334 10.6666H51.6668C53.037 10.6666 54.3512 11.2285 55.3201 12.2287C56.2891 13.2289 56.8334 14.5855 56.8334 16V48C56.8334 49.4144 56.2891 50.771 55.3201 51.7712C54.3512 52.7714 53.037 53.3333 51.6668 53.3333H10.3334C8.96313 53.3333 7.64897 52.7714 6.68003 51.7712C5.71109 50.771 5.16675 49.4144 5.16675 48V16ZM14.2575 16L31.0001 31.1226L47.7427 16H14.2575ZM51.6668 19.544L32.7025 36.6746C32.2314 37.1007 31.6264 37.3356 31.0001 37.3356C30.3738 37.3356 29.7688 37.1007 29.2977 36.6746L10.3334 19.544V48H51.6668V19.544Z" fill="#3D837B"/>
</svg>
