<svg width="62" height="64" viewBox="0 0 62 64" fill="none" xmlns="http://www.w3.org/2000/svg">
<path d="M49.6776 40.6933L43.1159 39.92C42.3444 39.8264 41.5623 39.9146 40.8286 40.1778C40.0948 40.4411 39.4283 40.8726 38.8793 41.4399L34.1259 46.3466C26.7923 42.4965 20.8315 36.3434 17.1018 28.7733L21.8809 23.8399C22.9918 22.6933 23.5343 21.0933 23.3534 19.4666L22.6043 12.7466C22.4578 11.4458 21.853 10.2459 20.9051 9.37554C19.9571 8.50517 18.7321 8.02506 17.4634 8.02662H12.9943C10.0751 8.02662 7.64677 10.5333 7.82761 13.5466C9.19677 36.3199 26.8409 54.5066 48.8768 55.9199C51.7959 56.1066 54.2243 53.5999 54.2243 50.5866V45.9733C54.2501 43.2799 52.2868 41.0133 49.6776 40.6933Z" fill="#3D837B"/>
</svg>
