<svg width="1440" height="839" viewBox="0 0 1440 839" fill="none" xmlns="http://www.w3.org/2000/svg">
<path d="M0 838.627H34.2C68.55 838.627 136.95 838.627 205.5 838.627C274.05 838.627 342.45 838.627 411 838.627C479.55 838.627 547.95 838.627 616.8 838.627C685.5 838.627 754.5 838.627 823.2 838.627C892.05 838.627 960.45 838.627 1029 838.627C1097.55 838.627 1165.95 838.627 1234.5 838.627C1303.05 838.627 1371.45 838.627 1405.8 838.627H1440V660.361L1405.8 658.811C1371.45 657.261 1303.05 654.16 1234.5 655.4C1165.95 656.795 1097.55 662.376 1029 662.376C960.45 662.376 892.05 656.795 823.2 666.561C754.5 676.327 685.5 701.75 616.8 689.348C547.95 676.947 479.55 626.723 411 628.118C342.45 629.358 274.05 682.063 205.5 698.649C136.95 715.081 68.55 695.549 34.2 685.628L0 675.862V838.627Z" fill="white"/>
<path d="M0 678.963L34.2 688.728C68.55 698.649 136.95 718.181 205.5 701.75C274.05 685.163 342.45 632.458 411 631.218C479.55 629.823 547.95 680.048 616.8 692.449C685.5 704.85 754.5 679.428 823.2 669.662C892.05 659.896 960.45 665.476 1029 665.476C1097.55 665.476 1165.95 659.896 1234.5 658.501C1303.05 657.261 1371.45 660.361 1405.8 661.911L1440 663.461V466.593L1405.8 462.408C1371.45 458.377 1303.05 450.006 1234.5 443.031C1165.95 436.055 1097.55 430.475 1029 437.45C960.45 444.426 892.05 463.958 823.2 469.693C754.5 475.429 685.5 467.058 616.8 457.292C547.95 447.526 479.55 436.055 411 439C342.45 441.791 274.05 458.842 205.5 465.818C136.95 472.794 68.55 469.693 34.2 468.143L0 466.593V678.963Z" fill="#ECF3F2"/>
<path d="M0 469.693L34.2 471.243C68.55 472.794 136.95 475.894 205.5 468.918C274.05 461.943 342.45 444.891 411 442.101C479.55 439.155 547.95 450.626 616.8 460.392C685.5 470.158 754.5 478.529 823.2 472.794C892.05 467.058 960.45 447.526 1029 440.551C1097.55 433.575 1165.95 439.155 1234.5 446.131C1303.05 453.107 1371.45 461.477 1405.8 465.508L1440 469.693V409.238L1405.8 402.262C1371.45 395.286 1303.05 381.335 1234.5 375.6C1165.95 370.019 1097.55 372.499 1029 380.87C960.45 389.086 892.05 403.037 823.2 400.247C754.5 397.302 685.5 377.77 616.8 372.034C547.95 366.299 479.55 374.67 411 385.676C342.45 396.837 274.05 410.788 205.5 416.523C136.95 422.104 68.55 419.624 34.2 418.228L0 416.988V469.693Z" fill="#D8E8E6"/>
<path d="M0 420.089L34.2 421.329C68.55 422.724 136.95 425.204 205.5 419.624C274.05 413.888 342.45 399.937 411 388.776C479.55 377.77 547.95 369.399 616.8 375.134C685.5 380.87 754.5 400.402 823.2 403.347C892.05 406.137 960.45 392.186 1029 383.97C1097.55 375.599 1165.95 373.119 1234.5 378.7C1303.05 384.435 1371.45 398.387 1405.8 405.362L1440 412.338V333.281L1405.8 327.545C1371.45 321.965 1303.05 310.493 1234.5 311.889C1165.95 313.129 1097.55 327.08 1029 334.056C960.45 341.031 892.05 341.031 823.2 336.846C754.5 332.816 685.5 324.445 616.8 319.019C547.95 313.594 479.55 311.114 411 319.639C342.45 328.165 274.05 347.697 205.5 357.618C136.95 367.384 68.55 367.384 34.2 367.384H0V420.089Z" fill="#C5DCD9"/>
<path d="M0 328.63L34.2 327.08C68.55 325.53 136.95 322.43 205.5 315.454C274.05 308.478 342.45 297.627 411 290.652C479.55 283.676 547.95 280.576 616.8 284.761C685.5 288.792 754.5 300.263 823.2 307.238C892.05 314.214 960.45 316.694 1029 304.138C1097.55 291.427 1165.95 263.524 1234.5 259.339C1303.05 255.308 1371.45 274.84 1405.8 284.761L1440 294.527V241.822L1405.8 232.056C1371.45 222.135 1303.05 202.604 1234.5 203.844C1165.95 205.084 1097.55 227.406 1029 228.646C960.45 229.886 892.05 210.354 823.2 206.169C754.5 201.984 685.5 213.455 616.8 215.005C547.95 216.555 479.55 208.184 411 205.394C342.45 202.604 274.05 205.084 205.5 209.269C136.95 213.455 68.55 219.035 34.2 221.98L0 224.771V328.63Z" fill="#9FC6C1"/>
<path d="M0 370.484H34.2C68.55 370.484 136.95 370.484 205.5 360.718C274.05 350.797 342.45 331.266 411 322.74C479.55 314.214 547.95 316.694 616.8 322.12C685.5 327.545 754.5 335.916 823.2 339.946C892.05 344.132 960.45 344.132 1029 337.156C1097.55 330.18 1165.95 316.229 1234.5 314.989C1303.05 313.594 1371.45 325.065 1405.8 330.646L1440 336.381V291.427L1405.8 281.661C1371.45 271.74 1303.05 252.208 1234.5 256.239C1165.95 260.424 1097.55 288.327 1029 301.038C960.45 313.594 892.05 311.114 823.2 304.138C754.5 297.162 685.5 285.691 616.8 281.661C547.95 277.476 479.55 280.576 411 287.552C342.45 294.527 274.05 305.378 205.5 312.354C136.95 319.329 68.55 322.43 34.2 323.98L0 325.53V370.484Z" fill="#B2D1CD"/>
<path d="M0 227.871L34.2 225.081C68.55 222.136 136.95 216.555 205.5 212.37C274.05 208.184 342.45 205.704 411 208.494C479.55 211.285 547.95 219.655 616.8 218.105C685.5 216.555 754.5 205.084 823.2 209.269C892.05 213.455 960.45 232.987 1029 231.746C1097.55 230.506 1165.95 208.184 1234.5 206.944C1303.05 205.704 1371.45 225.236 1405.8 235.157L1440 244.923V190.668L1405.8 179.507C1371.45 168.501 1303.05 146.179 1234.5 146.179C1165.95 146.179 1097.55 168.501 1029 169.741C960.45 170.981 892.05 151.449 823.2 150.054C754.5 148.814 685.5 165.865 616.8 167.415C547.95 168.966 479.55 155.014 411 148.039C342.45 141.063 274.05 141.063 205.5 146.489C136.95 151.914 68.55 162.765 34.2 168.191L0 173.616V227.871Z" fill="#8CBAB5"/>
<path d="M0 176.716L34.2 171.291C68.55 165.865 136.95 155.014 205.5 149.589C274.05 144.163 342.45 144.163 411 151.139C479.55 158.115 547.95 172.066 616.8 170.516C685.5 168.966 754.5 151.914 823.2 153.154C892.05 154.549 960.45 174.081 1029 172.841C1097.55 171.601 1165.95 149.279 1234.5 149.279C1303.05 149.279 1371.45 171.601 1405.8 182.607L1440 193.768V48.0544H1405.8C1371.45 48.0544 1303.05 48.0544 1234.5 49.6046C1165.95 51.1547 1097.55 54.255 1029 55.8052C960.45 57.3553 892.05 57.3553 823.2 55.8052C754.5 54.255 685.5 51.1547 616.8 51.1547C547.95 51.1547 479.55 54.255 411 55.8052C342.45 57.3553 274.05 57.3553 205.5 57.3553C136.95 57.3553 68.55 57.3553 34.2 57.3553H0V176.716Z" fill="#78AFA9"/>
<path d="M0 60.4556H34.2C68.55 60.4556 136.95 60.4556 205.5 60.4556C274.05 60.4556 342.45 60.4556 411 58.9054C479.55 57.3553 547.95 54.255 616.8 54.255C685.5 54.255 754.5 57.3553 823.2 58.9054C892.05 60.4556 960.45 60.4556 1029 58.9054C1097.55 57.3553 1165.95 54.255 1234.5 52.7049C1303.05 51.1547 1371.45 51.1547 1405.8 51.1547H1440V0H1405.8C1371.45 0 1303.05 0 1234.5 0C1165.95 0 1097.55 0 1029 0C960.45 0 892.05 0 823.2 0C754.5 0 685.5 0 616.8 0C547.95 0 479.55 0 411 0C342.45 0 274.05 0 205.5 0C136.95 0 68.55 0 34.2 0H0V60.4556Z" fill="#64A49D"/>
</svg>
