<svg width="786" height="552" viewBox="0 0 786 552" fill="none" xmlns="http://www.w3.org/2000/svg">
<path d="M305.067 359.218C199.858 177.981 -846.913 433.222 -624.058 277.532C-401.204 121.843 -479.652 947.358 -479.652 947.358L717.552 689.254C717.552 689.254 410.276 540.455 305.067 359.218Z" fill="#F4AC84"/>
<path d="M304.539 425.555C153.892 246.829 -750.451 705.461 -587.189 497.686C-423.928 289.912 -258.808 1200.56 -258.808 1200.56L785.267 712.764C785.267 712.764 455.186 604.28 304.539 425.555Z" fill="#86B6B1"/>
<path d="M218.894 521.506C95.8799 322.748 -865.611 644.794 -673.833 463.01C-482.054 281.225 -451.308 1206.21 -451.308 1206.21L652.672 875.66C652.672 875.66 341.907 720.264 218.894 521.506Z" fill="#C3CAA7"/>
</svg>
